<svg width="137" height="39" viewBox="0 0 137 39" xmlns="http://www.w3.org/2000/svg" xmlns:xlink="http://www.w3.org/1999/xlink">
    <defs>
        <path id="uzvy73b4ua" d="M0 0h38v36.49H0z"/>
    </defs>
    <g fill="none" fill-rule="evenodd">
        <g fill="#777">
            <path d="M62.074 13.62c1.7 0 2.987 1.66 2.987 3.703 0 2.051-1.288 3.71-2.987 3.71-1.693 0-2.984-1.659-2.984-3.71 0-2.044 1.29-3.703 2.984-3.703m-.105 8.443c3.539 0 5.651-2.125 5.651-4.74 0-2.614-2.112-4.733-5.651-4.733-3.535 0-5.652 2.119-5.652 4.733 0 2.615 2.117 4.74 5.652 4.74M71.955 21.6h2.783v-7.61h3.12v-1.04H68.26v1.04h3.695zM82.11 21.6h2.842v-7.61h3.782v-1.04h-9.81v1.04h3.185zM49.066 21.6h6.825v-1.037h-4.686a.525.525 0 0 1-.533-.517v-7.095H48v7.615c0 .57.477 1.034 1.066 1.034M93.424 13.971h5.12v-1.02h-7.26c-.581 0-1.057.459-1.057 1.026v6.59c0 .57.476 1.033 1.056 1.033h7.261v-1.021h-5.12a.524.524 0 0 1-.532-.517v-2.548h5.573v-1.01h-5.573v-2.02c0-.283.236-.513.532-.513"/>
            <g>
                <path d="M111.935 21.767c-2.581 0-4.672-2.02-4.672-4.511 0-2.494 2.09-4.512 4.672-4.512s4.673 2.018 4.673 4.512c0 2.49-2.091 4.51-4.673 4.51m0-13.123c-4.926 0-8.92 3.856-8.92 8.612 0 4.757 3.994 8.613 8.92 8.613 4.927 0 8.92-3.856 8.92-8.613 0-4.756-3.993-8.612-8.92-8.612"/>
                <path d="m130.337 17.668-5.83-7.59h-3.664v2.906a9.2 9.2 0 0 1 1.096 4.347c0 1.57-.4 3.044-1.096 4.35v2.752h3.885v-7.874l6.053 7.874h3.441V10.078h-3.885v7.59z"/>
            </g>
        </g>
        <g transform="translate(1 .96)">
            <mask id="k9wogb754b" fill="#fff">
                <use xlink:href="#uzvy73b4ua"/>
            </mask>
            <path d="M28.459 24.745c-1.61 2.46-3.744 4.192-5.698 4.626a6.152 6.152 0 0 1-1.095.105c-1.259 0-2.147-.461-2.776-.863a7.27 7.27 0 0 1-1.74-1.578c-3.36-4.144-3.592-11.914-3.608-12.79-.037-2.067.277-4.867 1.957-6.472.823-.778 1.847-1.174 3.056-1.174h.194c1.212 0 2.246.396 3.061 1.174 1.688 1.605 1.996 4.405 1.957 6.472-.04 2.158-.452 6.33-2.772 10.073-.196.301-.538.49-.906.49-.191 0-.382-.048-.541-.141-.502-.289-.666-.91-.368-1.388 1.627-2.619 2.416-5.499 2.476-9.066.042-2.368-.43-4.142-1.33-5-.415-.402-.935-.595-1.577-.595h-.186c-.643 0-1.157.193-1.58.595-.896.858-1.375 2.634-1.328 5 .045 2.915.774 8.63 3.161 11.578.382.474.8.858 1.23 1.131.422.269.894.53 1.631.53.199 0 .413-.023.637-.058 1.372-.316 3.083-1.779 4.358-3.728.199-.299.533-.474.896-.474a1.042 1.042 0 0 1 1.03.788.98.98 0 0 1-.14.765m-14.12 4.714h-.054c-.63 0-1.142-.477-1.173-1.082-.01-.298.097-.59.31-.81.212-.223.505-.354.821-.366.645-.025 1.197.461 1.218 1.083.028.62-.473 1.147-1.121 1.175m20.434-18.726L26.823 3.1c-4.297-4.132-11.343-4.132-15.643 0l-7.95 7.634a10.347 10.347 0 0 0 0 15.023l7.95 7.634c4.3 4.134 11.346 4.134 15.643 0l7.95-7.634a10.355 10.355 0 0 0 0-15.023" fill="#777" mask="url(#k9wogb754b)"/>
        </g>
    </g>
</svg>